<?xml version="1.0" standalone="no"?><svg xmlns="http://www.w3.org/2000/svg" 
viewBox="0 0 1440 320">
<path fill="#f3f4f5" fill-opacity="1" 
d="M0,256L26.7,266.7C53.3,277,107,299,160,266.7C213.3,235,267,149,320,133.3C373.3,117,427,171,480,186.7C533.3,203,587,181,640,181.3C693.3,181,747,203,800,218.7C853.3,235,907,245,960,261.3C1013.3,277,1067,299,1120,266.7C1173.3,235,1227,149,1280,133.3C1333.3,117,1387,171,1413,197.3L1440,224L1440,0L1413.3,0C1386.7,0,1333,0,1280,0C1226.7,0,1173,0,1120,0C1066.7,0,1013,0,960,0C906.7,0,853,0,800,0C746.7,0,693,0,640,0C586.7,0,533,0,480,0C426.7,0,373,0,320,0C266.7,0,213,0,160,0C106.7,0,53,0,27,0L0,0Z"></path></svg>